<?xml version="1.0" encoding="utf-8"?>
<!-- Generator: Adobe Illustrator 17.0.0, SVG Export Plug-In . SVG Version: 6.00 Build 0)  -->
<!DOCTYPE svg PUBLIC "-//W3C//DTD SVG 1.1//EN" "http://www.w3.org/Graphics/SVG/1.1/DTD/svg11.dtd">
<svg version="1.1" id="Layer_1" xmlns="http://www.w3.org/2000/svg" xmlns:xlink="http://www.w3.org/1999/xlink" x="0px" y="0px"
	 width="64.75px" height="81.75px" viewBox="0 0 64.75 81.75" enable-background="new 0 0 64.75 81.75" xml:space="preserve">
<g>
	<path fill="none" stroke="#277EC1" stroke-width="2" stroke-linecap="round" stroke-linejoin="round" stroke-miterlimit="10" d="
		M61.379,33.812v39.775c0,2.482-2.097,4.494-4.683,4.494H8.054c-2.586,0-4.683-2.012-4.683-4.494V8.163
		c0-2.482,2.097-4.494,4.683-4.494h21.268"/>
	<path fill="none" stroke="#90BF21" stroke-width="2" stroke-linecap="round" stroke-linejoin="round" stroke-miterlimit="10" d="
		M34.496,3.669v19.83c0,2.482,2.097,4.494,4.683,4.494h22.2L34.496,3.669z"/>
	
		<line fill="none" stroke="#277EC1" stroke-width="2" stroke-linecap="round" stroke-linejoin="round" stroke-miterlimit="10" x1="12.398" y1="17.861" x2="28.004" y2="17.861"/>
	
		<line fill="none" stroke="#277EC1" stroke-width="2" stroke-linecap="round" stroke-linejoin="round" stroke-miterlimit="10" x1="12.398" y1="27.765" x2="28.004" y2="27.765"/>
	
		<line fill="none" stroke="#277EC1" stroke-width="2" stroke-linecap="round" stroke-linejoin="round" stroke-miterlimit="10" x1="12.398" y1="37.67" x2="52.261" y2="37.67"/>
	
		<line fill="none" stroke="#277EC1" stroke-width="2" stroke-linecap="round" stroke-linejoin="round" stroke-miterlimit="10" x1="12.398" y1="47.574" x2="52.261" y2="47.574"/>
	
		<line fill="none" stroke="#277EC1" stroke-width="2" stroke-linecap="round" stroke-linejoin="round" stroke-miterlimit="10" x1="12.398" y1="57.479" x2="52.261" y2="57.479"/>
	
		<line fill="none" stroke="#277EC1" stroke-width="2" stroke-linecap="round" stroke-linejoin="round" stroke-miterlimit="10" x1="12.398" y1="67.383" x2="43.5" y2="67.383"/>
</g>
</svg>
